<svg id="XoneCorp_Logo" data-name="XoneCorp Logo" xmlns="http://www.w3.org/2000/svg" viewBox="0 0 1274 638.83"><defs><style>.cls-1{fill:#cf0;}.cls-2{fill:#2b292e;}</style></defs><title>XoneCorp_Stream_Logo</title><g id="Accent"><path class="cls-1" d="M-126.74,400.08c69.13-33.88,147.31-49.23,227-61.5C35.8,363-24.12,393.24-74.24,430.58A542.89,542.89,0,0,0-126.74,400.08Z" transform="translate(334.24 -2.84)"/><path class="cls-1" d="M71.26,435.08a685.92,685.92,0,0,1-138,2c25.43,16.67,47,32.68,63,47C19.87,472.76,45.42,454.46,71.26,435.08Z" transform="translate(334.24 -2.84)"/><path class="cls-1" d="M31.26,517.58c108.75,15.25,136,73,210,86.5a99.24,99.24,0,0,0-20.5,13.5c17.6,3.93,35,10,54,10l.88,12.62c-24,.13-59.88,4.13-73.38-1.62-38.69-16.48-84.5-40-96.5-49C79.89,570.17,58.65,541.94,31.26,517.58Z" transform="translate(334.24 -2.84)"/><path class="cls-1" d="M497.76,567.08c1.22,16.1-2.31,30.43-12,42.5,16.62,8,32.42,18.29,47.67,30.17,31.43-1,61-1.75,85.17-2.84C582.08,623.47,542.5,602,497.76,567.08Z" transform="translate(334.24 -2.84)"/><path class="cls-1" d="M369.76,513.08c11.4-12.28,24.16-19.73,38.25-22.5,8.88,12.68,8.68,31.65-6.5,61q31.31,1.13,48.5-12.25c2.29,4.56,3,10.48,2.5,17.5,1.4-.64,2.38-2.09,3-4.25,7.3,12,6.79,19.55,5.25,26.5a41,41,0,0,0-14.25-18.25c-13.15,5.13-29.26,5.52-50-1.5-2.57,1-5,3.23-7.25,7.25a16.24,16.24,0,0,1-8-2.5C381,544.43,377.77,527,369.76,513.08Z" transform="translate(334.24 -2.84)"/><path class="cls-1" d="M254.51,524.33a22.65,22.65,0,0,0,8.25-8.5l-22.25-17c11.64-5.21,27.09-14,21.25-15.25-28.25-6.25-57.48-4.23-59.5,1.25C200.51,489.58,237.64,517.25,254.51,524.33Z" transform="translate(334.24 -2.84)"/><path class="cls-1" d="M268.51,530.08a28.14,28.14,0,0,0,11.75-17.5l27.75-.5c.29,5.75-.45,11-2.75,15.5-2.56-1-5.1-1.26-7.25.25-3.78,2.67-6.7,7.14-9.25,13A44,44,0,0,1,268.51,530.08Z" transform="translate(334.24 -2.84)"/><path class="cls-1" d="M594.43,478.41c29.91,37.63,59.15,72.57,79,69.67,2.86,5.78,7.89,12.09,14,18.67-15-1.06-27.47-1-36.49-4.4C628.1,553.75,605.43,520.75,594.43,478.41Z" transform="translate(334.24 -2.84)"/><path class="cls-1" d="M723.51,554.08c44.41-11.44,109.58-12.94,184-10-25.66-12.89-55.37-20.12-99.25-7.5-23.94-.42-43.39.62-50.25,5.75C736.87,544.11,728.92,548.82,723.51,554.08Z" transform="translate(334.24 -2.84)"/><path class="cls-1" d="M735.76,504.33C722.31,492,708,479.19,689.51,473.83c-11.66-3.39-24.75-5.38-32.5-17.25a195.24,195.24,0,0,0-25.5-31.75c33-6.75,39.75,10,69.5,12-4.47,3-15.61,3.71-30.25,3.25,38.25,22.5,69.5,2.5,106.25,40.75C760,485.09,746.16,492.78,735.76,504.33Z" transform="translate(334.24 -2.84)"/></g><g id="Wold_Body" data-name="Wold Body"><path id="Wolf_Back_Paw" data-name="Wolf Back Paw" class="cls-2" d="M253,604.58c.58-.46-12.75,11-12.75,11l41.75,6,5.75,17.75,224-1c-17.07-13.4-34.47-22.79-52-30.75.78-5.22-11.25-33.25-17.75-35.75-11.27-4.34-65.69,4.77-122.5-11.5-56.4-16.16-117.54-55.28-124.25-62.75-33-36.75,140-29,55.25,2l52.5-1.25c2.75-40.5,40.5-78.5,53.5-91.75-31-7.25-155,.75-192.49,18.11,34.62-46.51,83.47-89,174.79-119.32C252.28,282.75,167.27,276.1,83.34,281l31.76-34.77c55.33-44.13,141.83-78.67,206.9-72C300.15,133.94,174.1,2.8,18.64,4.53,53.68,7.1,145.53,97,145.53,97c1.34-.83-150,93.21-182.45,151.06-152.25,11.17-266.44,47.77-297.32,69.06,74,18.92,137.64,44.63,192,73,65.61-48.4,284.39-81.16,302-58-65.25,11-182,93-182,93s83,6.83,110.5,3.25C57.52,453.08,24.6,476.09-9.74,498,148.76,521.08,167.51,565.08,253,604.58Z" transform="translate(334.24 -2.84)"/><path id="Wolf_Front_Paw" data-name="Wolf Front Paw" class="cls-2" d="M414.76,485.08c43.93-35.52,96.26-38.95,164.67,0,8.77,37.88,30.2,66.57,70.33,81.67a1110.24,1110.24,0,0,1,104,40.33c36.69,19.94,71.74,13.18,106-6.33,14.83,8,29,21.58,42.67,38.33l-255.67-.33c-60.5-24.53-116.39-52-156-90,.24,22.27-2.65,41.14-11.66,53.33-8.67-15.33-7.64-26.07-11-40.67-3.78-16.39-15.16-26.92-25-37-2.69,7.84-9.81,14.21-22.67,18.67C429.38,518.88,426.24,500.11,414.76,485.08Z" transform="translate(334.24 -2.84)"/></g><g id="Wolf_Head" data-name="Wolf Head"><path class="cls-2" d="M715.1,409.41c6.66-5.24,22.11-6.18,45.33-3.33-32.67-18.67-8.17-38.83-29.33-52,34.16,17,70.5,86.67,135.33,70.67C799.72,381.05,740,323.29,697.1,231.41c-1.2,18.87,1,40.93,7.33,66-29.63-37.84-60.87-70.42-94.67-94.66-4.41-20.55-13.58-36.79-25.33-50.67,4.7,31,5.71,58.91.6,81.86C525,153.39,464.64,83.75,403.51,41.5c26.89,37.4,43.8,72.68,47.06,105C349.43,52,266.08,14.34,190.91,2.84,247.53,46.1,333.76,132.26,364,190.24c0,0-146.22-4.2-202.49,59.23h0c94.23,6.76,181.47,24.42,260.22,55.61-76,10.6-142.09,42.71-202,88.33,67.14-10.55,133.44-14.28,198.67-9.33C332.12,453.83,312.85,496,321.1,526.75c80.66-122,258.66-126.67,366.66,27.33,1.76-5.82,4.38-11,8.65-15.1,37.69.77,46.19,3.77,62.35-14.23-18.64,4.21-24.34,1.63-12.5-10.17-51,15.83-78.23-33.19-119.33-77.17-24-25.69-2.52-24.47,35-18.5,50.23,8,92.48,30.2,130.33,63.84-19.64,3.42-34.73,11-46.33,21.83,25.3,1.16,43.24-1.37,54-7.5-6.8,11.48-16.77,20.61-32,25.83a782.32,782.32,0,0,0,171.83-17.5C877.58,453.88,805,418.32,715.1,409.41Zm-83-112c7.2,10.51,12,20.49,13.33,29.67-7-4.52-17.66-6-34.33-2.33,1.46-24.54-1-57.76-4.67-93.67,36.51,33.25,62.92,67.57,72.67,103.67C662.05,316.92,646,303.1,632.1,297.41Z" transform="translate(334.24 -2.84)"/></g></svg>